<svg width="800" height="800" viewBox="0 0 800 800" fill="none" xmlns="http://www.w3.org/2000/svg">
<path d="M400 800C620.914 800 800 620.914 800 400C800 179.086 620.914 0 400 0C179.086 0 0 179.086 0 400C0 620.914 179.086 800 400 800Z" fill="#0C3F7A"/>
<path d="M519 380C546.614 380 569 357.614 569 330C569 302.386 546.614 280 519 280C491.386 280 469 302.386 469 330C469 357.614 491.386 380 519 380Z" fill="#FFD93F"/>
<path d="M445 326.66C445 274.483 398.271 227.365 345 231.221V490.543C353.414 536.817 394.535 583.09 445 576.341V326.66Z" fill="#FFD93F"/>
<path d="M274 330C301.614 330 324 307.614 324 280C324 252.386 301.614 230 274 230C246.386 230 224 252.386 224 280C224 307.614 246.386 330 274 330Z" fill="#FFD93F"/>
<path d="M324.395 460.286C324.395 524.213 324.395 577 324.395 577C249.158 577 199 524.213 199 460.286C199 396.36 252.052 344.537 324.395 344.537C324.395 344.537 324.395 396.36 324.395 460.286Z" fill="#FFD93F"/>
<path d="M569 486.542C569 524.488 521.913 586.399 469 575.797V479.141C475.311 438.2 514.631 387.273 569 393.524V486.542Z" fill="#FFD93F"/>
</svg>
