<?xml version="1.0" encoding="utf-8"?>
<!-- Generator: Adobe Illustrator 24.1.1, SVG Export Plug-In . SVG Version: 6.00 Build 0)  -->
<svg version="1.1" id="Layer_1" xmlns="http://www.w3.org/2000/svg" xmlns:xlink="http://www.w3.org/1999/xlink" x="0px" y="0px"
	 viewBox="0 0 512 512" style="enable-background:new 0 0 512 512;" xml:space="preserve">
<style type="text/css">
	.st0{fill:#F37368;}
	.st1{fill:#F7A199;}
	.st2{fill:#F04939;}
</style>
<g>
	<polygon class="st0" points="382,241 382,305.9 361.1,305.9 361.1,230.8 	"/>
	<path class="st1" d="M85.8,293.9l15.7,13.7l66.1-34.5l-6.8-16.4L85.8,293.9z M361.1,252l53.2-27.6l-9-15.6l-44.2,22V252z"/>
	<path class="st0" d="M211.4,235.9v70.1h-20.1v-99.9L211.4,235.9z M85.8,293.9l15.7,13.7l30.2-75.6l-9.7-25.9L85.8,293.9z"/>
	<path class="st2" d="M122,206.1h20.6l38.2,99.9h-21.2L122,206.1z M214.4,206.1l44,68.2v31.7l-67.2-99.9H214.4z M296.3,206.1h20.8
		v99.9h-20.8V206.1z M361.1,224.4h-32v-18.3h74.6l10.6,18.3H382H361.1z"/>
	<polyline class="st1" points="475.8,268 475.8,305.9 455.2,305.9 455.2,268 	"/>
	<polygon class="st2" points="490,206.1 455.2,268 475.8,268 512,206.1 	"/>
	<polygon class="st0" points="455.2,268 419.1,206.1 441.8,206.1 466.1,248.5 	"/>
	<path class="st2" d="M8.3,217.7c0,13.8,8.6,22.1,25.7,26.5l18.2,4.2c16.3,3.8,26.2,13.1,26.2,28.2c0.1,6.5-2,12.9-6,18.2
		c0-15.1-7.9-23.3-26.6-28.2l-17.9-4.1c-14.4-3.2-25.4-10.9-25.4-27.3C2.5,228.9,4.5,222.6,8.3,217.7"/>
	<polygon class="st0" points="258.5,269.2 258.5,206.1 278.5,206.1 278.5,305.9 258.5,305.9 	"/>
	<path class="st0" d="M61.2,272.8c7.7,4.9,11.2,11.9,11.2,22c-6.5,8.3-17.7,12.8-31,12.8c-22.2,0-38.1-11-41.4-30.1h21.4
		c2.8,8.7,10,12.8,19.9,12.8C53.1,290.4,61.1,284,61.2,272.8 M8.3,217.5c6.3-8.1,17-13.1,30.1-13.1c22.8,0,35.9,12.1,39.3,28.9H57
		c-2.3-6.7-8-11.9-18.3-11.9c-11.2,0.1-18.8,6.5-19.2,16.7C12,234.1,8,226,8.3,217.5z"/>
</g>
</svg>
